<mxfile host="65bd71144e">
    <diagram id="E9dM0xadOwyAULvvE9JI" name="Page-1">
        <mxGraphModel dx="1252" dy="719" grid="1" gridSize="10" guides="1" tooltips="1" connect="1" arrows="1" fold="1" page="1" pageScale="1" pageWidth="827" pageHeight="1169" math="0" shadow="0">
            <root>
                <mxCell id="0"/>
                <mxCell id="1" parent="0"/>
                <mxCell id="35" value="" style="edgeStyle=none;html=1;" edge="1" parent="1" source="2">
                    <mxGeometry relative="1" as="geometry">
                        <mxPoint x="400" y="540" as="targetPoint"/>
                    </mxGeometry>
                </mxCell>
                <mxCell id="2" value="开始" style="ellipse;whiteSpace=wrap;html=1;" vertex="1" parent="1">
                    <mxGeometry x="340" y="410" width="120" height="60" as="geometry"/>
                </mxCell>
                <mxCell id="3" value="死循环： for(;;)" style="swimlane;horizontal=0;" vertex="1" parent="1">
                    <mxGeometry x="140" y="540" width="700" height="710" as="geometry"/>
                </mxCell>
                <mxCell id="6" value="// 临界区&#10;std::unique_lock&lt;std::mutex&gt; lock(this-&gt;queue_mutex);&#10;" style="swimlane;" vertex="1" parent="3">
                    <mxGeometry x="50" y="40" width="450" height="550" as="geometry">
                        <mxRectangle x="50" y="40" width="350" height="30" as="alternateBounds"/>
                    </mxGeometry>
                </mxCell>
                <mxCell id="8" value="this-&amp;gt;stop == true ?" style="rhombus;whiteSpace=wrap;html=1;" vertex="1" parent="6">
                    <mxGeometry x="60" y="50" width="140" height="50" as="geometry"/>
                </mxCell>
                <mxCell id="23" value="" style="edgeStyle=none;html=1;" edge="1" parent="6" source="17" target="22">
                    <mxGeometry relative="1" as="geometry"/>
                </mxCell>
                <mxCell id="27" value="&lt;font color=&quot;#ff0000&quot;&gt;Yes&lt;/font&gt;" style="edgeLabel;html=1;align=center;verticalAlign=middle;resizable=0;points=[];" vertex="1" connectable="0" parent="23">
                    <mxGeometry x="-0.491" y="-1" relative="1" as="geometry">
                        <mxPoint as="offset"/>
                    </mxGeometry>
                </mxCell>
                <mxCell id="17" value="&amp;nbsp;this-&amp;gt;tasks.empty();" style="rhombus;whiteSpace=wrap;html=1;" vertex="1" parent="6">
                    <mxGeometry x="260" y="135" width="140" height="45" as="geometry"/>
                </mxCell>
                <mxCell id="13" value="" style="edgeStyle=none;html=1;entryX=0.5;entryY=0;entryDx=0;entryDy=0;" edge="1" parent="6" source="8" target="17">
                    <mxGeometry relative="1" as="geometry">
                        <mxPoint x="290" y="75" as="targetPoint"/>
                        <Array as="points">
                            <mxPoint x="330" y="75"/>
                        </Array>
                    </mxGeometry>
                </mxCell>
                <mxCell id="14" value="&lt;font color=&quot;#ff0000&quot;&gt;No&lt;/font&gt;" style="edgeLabel;html=1;align=center;verticalAlign=middle;resizable=0;points=[];" vertex="1" connectable="0" parent="13">
                    <mxGeometry x="0.1755" relative="1" as="geometry">
                        <mxPoint x="-44" as="offset"/>
                    </mxGeometry>
                </mxCell>
                <mxCell id="21" value="this-&amp;gt;stop &amp;amp;&amp;amp; this-&amp;gt;tasks.empty()" style="rhombus;whiteSpace=wrap;html=1;" vertex="1" parent="6">
                    <mxGeometry x="20" y="290" width="220" height="40" as="geometry"/>
                </mxCell>
                <mxCell id="10" value="" style="edgeStyle=none;html=1;entryX=0.5;entryY=0;entryDx=0;entryDy=0;" edge="1" parent="6" source="8" target="21">
                    <mxGeometry relative="1" as="geometry">
                        <mxPoint x="130" y="175" as="targetPoint"/>
                    </mxGeometry>
                </mxCell>
                <mxCell id="16" value="&lt;font color=&quot;#ff0000&quot;&gt;Yes&lt;/font&gt;" style="edgeLabel;html=1;align=center;verticalAlign=middle;resizable=0;points=[];" vertex="1" connectable="0" parent="10">
                    <mxGeometry x="-0.28" relative="1" as="geometry">
                        <mxPoint as="offset"/>
                    </mxGeometry>
                </mxCell>
                <mxCell id="22" value="释放锁、阻塞，等待被唤醒" style="whiteSpace=wrap;html=1;" vertex="1" parent="6">
                    <mxGeometry x="490" y="138.75" width="150" height="37.5" as="geometry"/>
                </mxCell>
                <mxCell id="25" value="" style="edgeStyle=none;html=1;entryX=0.421;entryY=-0.005;entryDx=0;entryDy=0;entryPerimeter=0;" edge="1" parent="6" source="22" target="6">
                    <mxGeometry relative="1" as="geometry">
                        <mxPoint x="565" y="70" as="targetPoint"/>
                        <Array as="points">
                            <mxPoint x="565" y="-20"/>
                            <mxPoint x="370" y="-20"/>
                            <mxPoint x="189" y="-20"/>
                        </Array>
                    </mxGeometry>
                </mxCell>
                <mxCell id="26" value="被唤醒" style="edgeLabel;html=1;align=center;verticalAlign=middle;resizable=0;points=[];" vertex="1" connectable="0" parent="25">
                    <mxGeometry x="-0.6581" y="1" relative="1" as="geometry">
                        <mxPoint as="offset"/>
                    </mxGeometry>
                </mxCell>
                <mxCell id="31" value="// 从任务队列中取出一个任务&lt;br&gt;task = std::move(this-&amp;gt;tasks.front());&lt;br&gt;this-&amp;gt;tasks.pop();" style="whiteSpace=wrap;html=1;" vertex="1" parent="6">
                    <mxGeometry x="25" y="450" width="210" height="60" as="geometry"/>
                </mxCell>
                <mxCell id="32" value="" style="edgeStyle=none;html=1;" edge="1" parent="6" source="21" target="31">
                    <mxGeometry relative="1" as="geometry"/>
                </mxCell>
                <mxCell id="33" value="&lt;font color=&quot;#ff0000&quot;&gt;No&lt;/font&gt;" style="edgeLabel;html=1;align=center;verticalAlign=middle;resizable=0;points=[];" vertex="1" connectable="0" parent="32">
                    <mxGeometry x="-0.3673" y="1" relative="1" as="geometry">
                        <mxPoint as="offset"/>
                    </mxGeometry>
                </mxCell>
                <mxCell id="19" value="" style="edgeStyle=none;html=1;" edge="1" parent="1" source="17">
                    <mxGeometry relative="1" as="geometry">
                        <mxPoint x="320" y="980" as="targetPoint"/>
                        <Array as="points">
                            <mxPoint x="520" y="850"/>
                            <mxPoint x="520" y="980"/>
                        </Array>
                    </mxGeometry>
                </mxCell>
                <mxCell id="20" value="&lt;font color=&quot;#ff0000&quot;&gt;No&lt;/font&gt;" style="edgeLabel;html=1;align=center;verticalAlign=middle;resizable=0;points=[];" vertex="1" connectable="0" parent="19">
                    <mxGeometry x="-0.2717" relative="1" as="geometry">
                        <mxPoint x="16" y="-50" as="offset"/>
                    </mxGeometry>
                </mxCell>
                <mxCell id="28" value="结束" style="ellipse;whiteSpace=wrap;html=1;" vertex="1" parent="1">
                    <mxGeometry x="430" y="1310" width="120" height="60" as="geometry"/>
                </mxCell>
                <mxCell id="29" value="" style="edgeStyle=none;html=1;exitX=1.016;exitY=0.508;exitDx=0;exitDy=0;exitPerimeter=0;" edge="1" parent="1" source="21" target="28">
                    <mxGeometry relative="1" as="geometry">
                        <Array as="points">
                            <mxPoint x="490" y="890"/>
                        </Array>
                    </mxGeometry>
                </mxCell>
                <mxCell id="38" value="&lt;font color=&quot;#ff0000&quot;&gt;Yes&lt;/font&gt;" style="edgeLabel;html=1;align=center;verticalAlign=middle;resizable=0;points=[];" vertex="1" connectable="0" parent="29">
                    <mxGeometry x="-0.3961" relative="1" as="geometry">
                        <mxPoint x="-30" y="-87" as="offset"/>
                    </mxGeometry>
                </mxCell>
                <mxCell id="40" value="// 执行任务&lt;br&gt;task();" style="whiteSpace=wrap;html=1;" vertex="1" parent="1">
                    <mxGeometry x="260" y="1170" width="120" height="60" as="geometry"/>
                </mxCell>
                <mxCell id="41" value="" style="edgeStyle=none;html=1;fontColor=#FF0000;" edge="1" parent="1" source="31" target="40">
                    <mxGeometry relative="1" as="geometry"/>
                </mxCell>
                <mxCell id="37" value="" style="edgeStyle=none;html=1;entryX=0.4;entryY=0;entryDx=0;entryDy=0;entryPerimeter=0;exitX=0;exitY=0.5;exitDx=0;exitDy=0;" edge="1" parent="1" source="40" target="6">
                    <mxGeometry relative="1" as="geometry">
                        <mxPoint x="210" y="1200" as="sourcePoint"/>
                        <mxPoint x="90" y="1060" as="targetPoint"/>
                        <Array as="points">
                            <mxPoint x="170" y="1200"/>
                            <mxPoint x="170" y="1150"/>
                            <mxPoint x="170" y="1060"/>
                            <mxPoint x="170" y="610"/>
                            <mxPoint x="170" y="560"/>
                            <mxPoint x="370" y="560"/>
                        </Array>
                    </mxGeometry>
                </mxCell>
            </root>
        </mxGraphModel>
    </diagram>
</mxfile>